HIERARCHY
ROOT Hips
{
	OFFSET 0.000000 0.000000 0.000000
	CHANNELS 6 Xposition Yposition Zposition Zrotation Yrotation Xrotation 
	JOINT Spine1
	{
		OFFSET -0.013727 5.003763 -0.053727
		CHANNELS 3 Zrotation Yrotation Xrotation
		JOINT Spine2
		{
			OFFSET -0.000000 7.125302 -0.029825
			CHANNELS 3 Zrotation Yrotation Xrotation
			JOINT Chest
			{
				OFFSET -0.000001 7.550063 -0.815971
				CHANNELS 3 Zrotation Yrotation Xrotation
				JOINT Neck1
				{
					OFFSET -0.181676 26.311296 -0.553348
					CHANNELS 3 Zrotation Yrotation Xrotation
					JOINT Neck2
					{
						OFFSET -0.000003 7.709399 2.302585
						CHANNELS 3 Zrotation Yrotation Xrotation
						JOINT Head
						{
							OFFSET -0.000005 6.128912 1.953709
							CHANNELS 3 Zrotation Yrotation Xrotation
							JOINT HeadEnd
							{
								OFFSET 0.003598 16.065401 -1.835380
								CHANNELS 3 Zrotation Yrotation Xrotation
								End Site
								{
									OFFSET 0.000000 0.000000 0.000000
								}
							}
							JOINT Jaw
							{
								OFFSET 0.002637 0.475591 3.094941
								CHANNELS 3 Zrotation Yrotation Xrotation
								End Site
								{
									OFFSET 0.000000 0.000000 0.000000
								}
							}
							JOINT LeftEye
							{
								OFFSET 3.206380 5.380208 7.586882
								CHANNELS 3 Zrotation Yrotation Xrotation
								End Site
								{
									OFFSET 0.000000 0.000000 0.000000
								}
							}
							JOINT RightEye
							{
								OFFSET -3.222440 5.361868 7.558232
								CHANNELS 3 Zrotation Yrotation Xrotation
								End Site
								{
									OFFSET 0.000000 0.000000 0.000000
								}
							}
						}
					}
				}
				JOINT LeftShoulder
				{
					OFFSET 1.621652 23.237164 5.113413
					CHANNELS 3 Zrotation Yrotation Xrotation
					JOINT LeftArm
					{
						OFFSET 14.919845 0.000000 -5.502326
						CHANNELS 3 Zrotation Yrotation Xrotation
						JOINT LeftForeArm
						{
							OFFSET 28.739313 0.000003 -0.002588
							CHANNELS 3 Zrotation Yrotation Xrotation
							JOINT LeftHand
							{
								OFFSET 27.093983 -0.000003 0.002610
								CHANNELS 3 Zrotation Yrotation Xrotation
								JOINT LeftHandThumb1
								{
									OFFSET 2.276481 -1.392046 3.191413
									CHANNELS 3 Zrotation Yrotation Xrotation
									JOINT LeftHandThumb2
									{
										OFFSET 4.012840 -1.828126 1.641655
										CHANNELS 3 Zrotation Yrotation Xrotation
										JOINT LeftHandThumb3
										{
											OFFSET 2.798517 0.000001 -0.000003
											CHANNELS 3 Zrotation Yrotation Xrotation
											JOINT LeftHandThumbEnd
											{
												OFFSET 3.180791 -0.000002 0.000003
												CHANNELS 3 Zrotation Yrotation Xrotation
												End Site
												{
													OFFSET 0.000000 0.000000 0.000000
												}
											}
										}
									}
								}
								JOINT LeftHandIndex1
								{
									OFFSET 3.247554 -0.531998 2.296169
									CHANNELS 3 Zrotation Yrotation Xrotation
									JOINT LeftHandIndex2
									{
										OFFSET 6.364580 0.012062 0.178600
										CHANNELS 3 Zrotation Yrotation Xrotation
										JOINT LeftHandIndex3
										{
											OFFSET 3.662366 0.000001 -0.000000
											CHANNELS 3 Zrotation Yrotation Xrotation
											JOINT LeftHandIndex4
											{
												OFFSET 2.329243 0.000003 0.000005
												CHANNELS 3 Zrotation Yrotation Xrotation
												JOINT LeftHandIndexEnd
												{
													OFFSET 2.759619 -0.180539 -0.113024
													CHANNELS 3 Zrotation Yrotation Xrotation
													End Site
													{
														OFFSET 0.000000 0.000000 0.000000
													}
												}
											}
										}
									}
								}
								JOINT LeftHandMiddle1
								{
									OFFSET 3.163499 0.240982 1.000332
									CHANNELS 3 Zrotation Yrotation Xrotation
									JOINT LeftHandMiddle2
									{
										OFFSET 6.190778 -0.259276 -1.002548
										CHANNELS 3 Zrotation Yrotation Xrotation
										JOINT LeftHandMiddle3
										{
											OFFSET 4.356523 -0.000005 0.000000
											CHANNELS 3 Zrotation Yrotation Xrotation
											JOINT LeftHandMiddle4
											{
												OFFSET 2.996875 -0.000007 0.000001
												CHANNELS 3 Zrotation Yrotation Xrotation
												JOINT LeftHandMiddleEnd
												{
													OFFSET 2.304294 -0.294571 -0.031739
													CHANNELS 3 Zrotation Yrotation Xrotation
													End Site
													{
														OFFSET 0.000000 0.000000 0.000000
													}
												}
											}
										}
									}
								}
								JOINT LeftHandRing1
								{
									OFFSET 2.882642 -0.053650 -0.322543
									CHANNELS 3 Zrotation Yrotation Xrotation
									JOINT LeftHandRing2
									{
										OFFSET 5.854543 -0.486203 -1.373841
										CHANNELS 3 Zrotation Yrotation Xrotation
										JOINT LeftHandRing3
										{
											OFFSET 4.350581 0.000001 0.000004
											CHANNELS 3 Zrotation Yrotation Xrotation
											JOINT LeftHandRing4
											{
												OFFSET 2.651324 0.000008 0.000003
												CHANNELS 3 Zrotation Yrotation Xrotation
												JOINT LeftHandRingEnd
												{
													OFFSET 1.936111 0.077685 -0.000070
													CHANNELS 3 Zrotation Yrotation Xrotation
													End Site
													{
														OFFSET 0.000000 0.000000 0.000000
													}
												}
											}
										}
									}
								}
								JOINT LeftHandPinky1
								{
									OFFSET 2.865500 -0.310004 -1.600378
									CHANNELS 3 Zrotation Yrotation Xrotation
									JOINT LeftHandPinky2
									{
										OFFSET 5.087853 -1.331142 -1.771231
										CHANNELS 3 Zrotation Yrotation Xrotation
										JOINT LeftHandPinky3
										{
											OFFSET 3.070976 0.000004 0.000000
											CHANNELS 3 Zrotation Yrotation Xrotation
											JOINT LeftHandPinky4
											{
												OFFSET 1.549667 0.000000 0.000001
												CHANNELS 3 Zrotation Yrotation Xrotation
												JOINT LeftHandPinkyEnd
												{
													OFFSET 1.944894 -0.157802 0.057219
													CHANNELS 3 Zrotation Yrotation Xrotation
													End Site
													{
														OFFSET 0.000000 0.000000 0.000000
													}
												}
											}
										}
									}
								}
							}
						}
					}
				}
				JOINT RightShoulder
				{
					OFFSET -1.380118 23.180307 5.214158
					CHANNELS 3 Zrotation Yrotation Xrotation
					JOINT RightArm
					{
						OFFSET -15.037197 0.000012 -5.545604
						CHANNELS 3 Zrotation Yrotation Xrotation
						JOINT RightForeArm
						{
							OFFSET -28.736639 0.000002 -0.002599
							CHANNELS 3 Zrotation Yrotation Xrotation
							JOINT RightHand
							{
								OFFSET -27.133619 0.000000 0.002613
								CHANNELS 3 Zrotation Yrotation Xrotation
								JOINT RightHandThumb1
								{
									OFFSET -2.274036 -1.383990 3.163127
									CHANNELS 3 Zrotation Yrotation Xrotation
									JOINT RightHandThumb2
									{
										OFFSET -4.011430 -1.827468 1.640915
										CHANNELS 3 Zrotation Yrotation Xrotation
										JOINT RightHandThumb3
										{
											OFFSET -2.794934 -0.000004 -0.000003
											CHANNELS 3 Zrotation Yrotation Xrotation
											JOINT RightHandThumbEnd
											{
												OFFSET -3.183855 0.000003 0.000000
												CHANNELS 3 Zrotation Yrotation Xrotation
												End Site
												{
													OFFSET 0.000000 0.000000 0.000000
												}
											}
										}
									}
								}
								JOINT RightHandIndex1
								{
									OFFSET -3.253269 -0.520060 2.282866
									CHANNELS 3 Zrotation Yrotation Xrotation
									JOINT RightHandIndex2
									{
										OFFSET -6.341918 0.012473 0.178265
										CHANNELS 3 Zrotation Yrotation Xrotation
										JOINT RightHandIndex3
										{
											OFFSET -3.654874 -0.000009 -0.000001
											CHANNELS 3 Zrotation Yrotation Xrotation
											JOINT RightHandIndex4
											{
												OFFSET -2.327587 0.000001 0.000000
												CHANNELS 3 Zrotation Yrotation Xrotation
												JOINT RightHandIndexEnd
												{
													OFFSET -2.761789 -0.180657 -0.113079
													CHANNELS 3 Zrotation Yrotation Xrotation
													End Site
													{
														OFFSET 0.000000 0.000000 0.000000
													}
												}
											}
										}
									}
								}
								JOINT RightHandMiddle1
								{
									OFFSET -3.168105 0.246593 1.001030
									CHANNELS 3 Zrotation Yrotation Xrotation
									JOINT RightHandMiddle2
									{
										OFFSET -6.180830 -0.258836 -1.000896
										CHANNELS 3 Zrotation Yrotation Xrotation
										JOINT RightHandMiddle3
										{
											OFFSET -4.348905 -0.000001 -0.000001
											CHANNELS 3 Zrotation Yrotation Xrotation
											JOINT RightHandMiddle4
											{
												OFFSET -3.000243 -0.000004 -0.000002
												CHANNELS 3 Zrotation Yrotation Xrotation
												JOINT RightHandMiddleEnd
												{
													OFFSET -2.302518 -0.294371 -0.031706
													CHANNELS 3 Zrotation Yrotation Xrotation
													End Site
													{
														OFFSET 0.000000 0.000000 0.000000
													}
												}
											}
										}
									}
								}
								JOINT RightHandRing1
								{
									OFFSET -2.885693 -0.067952 -0.308858
									CHANNELS 3 Zrotation Yrotation Xrotation
									JOINT RightHandRing2
									{
										OFFSET -5.854198 -0.486132 -1.373731
										CHANNELS 3 Zrotation Yrotation Xrotation
										JOINT RightHandRing3
										{
											OFFSET -4.338814 -0.000004 -0.000000
											CHANNELS 3 Zrotation Yrotation Xrotation
											JOINT RightHandRing4
											{
												OFFSET -2.654905 -0.000004 0.000004
												CHANNELS 3 Zrotation Yrotation Xrotation
												JOINT RightHandRingEnd
												{
													OFFSET -1.933570 0.077524 -0.000052
													CHANNELS 3 Zrotation Yrotation Xrotation
													End Site
													{
														OFFSET 0.000000 0.000000 0.000000
													}
												}
											}
										}
									}
								}
								JOINT RightHandPinky1
								{
									OFFSET -2.866429 -0.342798 -1.584145
									CHANNELS 3 Zrotation Yrotation Xrotation
									JOINT RightHandPinky2
									{
										OFFSET -5.091371 -1.332054 -1.772385
										CHANNELS 3 Zrotation Yrotation Xrotation
										JOINT RightHandPinky3
										{
											OFFSET -3.062666 -0.000007 0.000000
											CHANNELS 3 Zrotation Yrotation Xrotation
											JOINT RightHandPinky4
											{
												OFFSET -1.546527 0.000006 -0.000002
												CHANNELS 3 Zrotation Yrotation Xrotation
												JOINT RightHandPinkyEnd
												{
													OFFSET -1.945122 -0.157722 0.057211
													CHANNELS 3 Zrotation Yrotation Xrotation
													End Site
													{
														OFFSET 0.000000 0.000000 0.000000
													}
												}
											}
										}
									}
								}
							}
						}
					}
				}
			}
		}
	}
	JOINT LeftLeg
	{
		OFFSET 10.043214 -8.434526 2.595655
		CHANNELS 3 Zrotation Yrotation Xrotation
		JOINT LeftShin
		{
			OFFSET -0.000001 -43.221752 -0.802913
			CHANNELS 3 Zrotation Yrotation Xrotation
			JOINT LeftFoot
			{
				OFFSET 0.000002 -42.155094 -3.481523
				CHANNELS 3 Zrotation Yrotation Xrotation
				JOINT LeftToeBase
				{
					OFFSET 0.000000 -5.059475 13.231529
					CHANNELS 3 Zrotation Yrotation Xrotation
					JOINT LeftToeEnd
					{
						OFFSET -0.009607 -1.647616 6.513017
						CHANNELS 3 Zrotation Yrotation Xrotation
						End Site
						{
							OFFSET 0.000000 0.000000 0.000000
						}
					}
				}
			}
		}
	}
	JOINT RightLeg
	{
		OFFSET -10.047277 -8.295259 2.620317
		CHANNELS 3 Zrotation Yrotation Xrotation
		JOINT RightShin
		{
			OFFSET 0.000001 -43.362209 -0.805556
			CHANNELS 3 Zrotation Yrotation Xrotation
			JOINT RightFoot
			{
				OFFSET 0.000002 -42.117393 -3.478397
				CHANNELS 3 Zrotation Yrotation Xrotation
				JOINT RightToeBase
				{
					OFFSET -0.000001 -5.079609 13.284196
					CHANNELS 3 Zrotation Yrotation Xrotation
					JOINT RightToeEnd
					{
						OFFSET 0.009532 -1.634384 6.460591
						CHANNELS 3 Zrotation Yrotation Xrotation
						End Site
						{
							OFFSET 0.000000 0.000000 0.000000
						}
					}
				}
			}
		}
	}
}
MOTION
Frames: 4
Frame Time: 0.033333
0.024606 91.626068 6.584208 1.906723 19.905897 -3.679711 -1.977762 0.845451 6.205243 -1.409352 2.307338 -2.664765 -2.858109 1.910910 15.125310 -1.912929 4.356095 20.297718 0.400858 3.119928 -3.791350 1.175364 1.572685 5.191471 0.000075 -0.000022 0.000003 -0.033633 0.051940 -0.135943 0.709216 -3.690839 -10.968375 -0.790199 3.789976 -10.954352 16.068542 -8.103540 9.574171 -85.727089 -42.977467 2.358449 178.158249 -36.117466 179.761215 7.120858 -14.352057 -8.329546 -5.882102 9.861277 0.702590 -10.936859 -0.360575 7.156196 0.000002 8.774813 -0.000000 -15.791120 17.599289 6.442748 -1.844031 2.498502 -2.507276 -10.163590 4.678940 4.621104 -20.975994 -0.000004 0.000000 -21.226255 2.451691 -3.593995 -0.000001 -0.000006 0.000000 -1.362680 2.240796 -0.746323 -21.334892 0.584909 3.008319 -13.821194 -0.000002 0.000001 -23.887125 -0.249079 -0.839482 -59.743019 2.643017 -0.988663 -0.294025 1.679685 0.833255 -14.218194 0.093215 1.300578 -34.212006 -0.287563 0.967167 -20.033176 0.964535 1.212840 -0.000000 0.000000 0.000000 -3.440386 0.788233 0.501655 -15.928167 -3.167305 2.999703 -6.338817 -0.000001 0.000001 -18.123415 3.648176 -4.905663 -0.000006 0.000000 -0.000002 -7.714845 21.657890 16.023699 55.415867 25.957912 -29.511377 -178.344894 56.171970 -179.146774 -1.820129 18.791166 -32.472164 2.243540 -5.255032 -3.180155 14.282875 -0.826593 6.952496 -0.000003 -12.690590 0.000000 15.891296 -17.797718 2.590747 1.665664 -1.955917 -2.878295 4.727793 -4.170583 4.993918 11.020508 0.000006 -0.000001 12.109030 -3.735708 -2.866778 -0.000001 0.000001 -0.000000 1.291984 -1.928549 -1.498087 14.800111 0.567469 3.865604 14.242553 -1.341733 -6.660649 19.631939 0.143926 -0.648242 50.335037 -0.608981 -5.859679 0.353029 -1.511149 -0.031940 20.222769 3.684305 2.316626 18.787245 0.000005 0.000001 10.751614 -0.479867 1.397903 -0.000000 -0.000001 0.000002 3.273805 0.305945 -0.580112 21.486790 11.830359 2.266130 8.162913 0.000002 -0.000002 18.399050 -3.798977 -4.940567 0.000003 0.000000 -0.000001 9.531388 6.928452 -27.644424 -0.353965 -0.812625 44.373848 -10.334674 -9.892055 -7.394337 1.609924 -1.771605 -0.428628 0.000000 -0.000001 0.000002 -14.791281 -18.110443 0.705979 0.404639 1.371323 47.567875 8.823965 1.400669 -17.576452 -1.531109 1.062109 -10.541967 0.000000 0.000000 -0.000001 
0.569942 91.241280 5.852412 1.120892 9.041212 -4.669772 -1.917861 0.722449 6.229465 -1.329238 1.465239 -2.902638 -1.942044 0.837235 15.237973 -4.804878 6.436521 19.728350 0.755972 4.763603 -3.692884 -0.431447 4.802720 5.787954 0.000077 -0.000022 0.000005 -0.026243 0.056725 -0.163786 0.677679 -3.699579 -10.966055 -0.737987 3.803957 -10.967469 17.565922 -10.453576 9.295685 -82.818214 -41.859505 -6.857110 178.348099 -35.295887 179.668655 6.271644 -16.010822 -8.279751 -5.882102 9.861278 0.702590 -10.936859 -0.360575 7.156196 0.000000 8.774813 -0.000001 -15.846148 17.508923 6.197041 -1.844031 2.498503 -2.507277 -10.163589 4.678939 4.621103 -20.975996 -0.000003 0.000003 -21.226254 2.451693 -3.593995 0.000001 -0.000006 -0.000000 -1.362680 2.240796 -0.746323 -21.334892 0.584909 3.008319 -13.821195 -0.000003 0.000002 -23.887133 -0.249078 -0.839482 -59.542690 2.604863 -1.098594 -0.294025 1.679686 0.833255 -14.218194 0.093215 1.300579 -34.212002 -0.287563 0.967169 -20.033180 0.964535 1.212841 0.000000 0.000000 -0.000000 -3.440386 0.788233 0.501655 -15.928167 -3.167306 2.999703 -6.338817 -0.000001 0.000001 -18.123415 3.648176 -4.905661 -0.000007 0.000000 -0.000002 -6.489172 22.378473 15.823167 64.435341 38.009613 -15.862156 179.166046 53.224369 179.318130 -3.586209 18.894119 -24.333481 2.243539 -5.255031 -3.180154 14.282875 -0.826592 6.952495 -0.000002 -12.690591 0.000000 15.576100 -17.448235 2.513380 1.665665 -1.955919 -2.878298 4.727793 -4.170581 4.993916 11.020512 0.000004 -0.000001 12.109032 -3.735710 -2.866780 -0.000000 -0.000000 -0.000001 1.291986 -1.928549 -1.498086 14.800111 0.567468 3.865603 14.242553 -1.341734 -6.660649 19.631935 0.143928 -0.648244 49.868935 -0.546301 -5.828784 0.353029 -1.511149 -0.031941 20.222769 3.684305 2.316629 18.787245 0.000005 -0.000001 10.751610 -0.479868 1.397904 0.000000 -0.000001 0.000000 3.273803 0.305947 -0.580109 21.486788 11.830363 2.266133 8.162916 0.000000 0.000001 18.399050 -3.798978 -4.940567 0.000002 0.000000 -0.000003 11.904454 11.716484 -24.575312 -0.395448 -0.771148 46.056900 -10.859548 -6.324230 -10.751487 1.631476 -1.809746 -0.227411 -0.000000 0.000000 0.000002 -15.836230 -14.911248 -2.111887 0.457259 1.228192 47.669010 10.427416 4.260162 -19.987759 -1.477864 0.870838 -8.888676 0.000000 0.000000 -0.000001 
0.987212 90.872864 5.317575 0.661894 -0.500955 -5.343776 -1.774210 0.617269 6.281308 -1.231024 0.933366 -2.994199 -1.159796 0.195823 15.453277 -6.819158 7.996130 19.202711 1.143762 6.234356 -3.576381 -1.540060 7.400668 5.834322 0.000078 -0.000023 0.000006 -0.006964 0.036918 -0.180962 0.699868 -3.725661 -10.926427 -0.722225 3.794065 -10.924322 19.122215 -12.187163 8.962876 -80.238586 -41.308567 -14.289277 177.684372 -34.578690 -179.863785 5.809552 -16.474445 -9.528143 -5.882100 9.861280 0.702589 -10.936858 -0.360576 7.156198 0.000001 8.774815 -0.000003 -15.714367 17.755121 6.227746 -1.844030 2.498503 -2.507275 -10.163589 4.678939 4.621104 -20.975992 -0.000004 0.000005 -21.226246 2.451693 -3.593992 0.000001 -0.000006 -0.000000 -1.362679 2.240797 -0.746322 -21.334885 0.584907 3.008322 -13.821193 -0.000003 0.000003 -23.887129 -0.249077 -0.839478 -59.657650 2.524563 -1.279104 -0.294025 1.679686 0.833256 -14.218190 0.093213 1.300580 -34.212002 -0.287564 0.967173 -20.033176 0.964535 1.212843 -0.000000 0.000000 0.000000 -3.440385 0.788232 0.501656 -15.928169 -3.167309 2.999705 -6.338816 -0.000001 0.000002 -18.123411 3.648177 -4.905660 -0.000005 0.000000 -0.000002 -6.278908 23.747093 14.924707 73.568718 44.939354 -3.493089 178.058563 50.549664 178.668060 -5.243463 18.382427 -20.262087 2.243538 -5.255033 -3.180156 14.282878 -0.826592 6.952496 -0.000003 -12.690593 -0.000001 15.595720 -17.354303 2.667601 1.665665 -1.955921 -2.878297 4.727793 -4.170582 4.993917 11.020511 0.000004 -0.000001 12.109032 -3.735708 -2.866778 -0.000001 -0.000001 -0.000002 1.291984 -1.928548 -1.498088 14.800111 0.567468 3.865604 14.242551 -1.341733 -6.660645 19.631939 0.143927 -0.648239 49.521694 -0.675337 -5.719515 0.353029 -1.511149 -0.031939 20.222769 3.684308 2.316628 18.787247 0.000006 0.000001 10.751610 -0.479865 1.397905 -0.000001 0.000001 0.000001 3.273805 0.305946 -0.580110 21.486792 11.830364 2.266132 8.162915 0.000003 0.000000 18.399050 -3.798980 -4.940565 0.000003 -0.000002 -0.000002 14.049433 15.838948 -21.459616 -0.428585 -0.751698 47.304451 -11.702278 -3.068061 -13.291906 1.639074 -1.833037 -0.004974 0.000000 0.000000 0.000002 -16.109787 -11.736702 -5.454453 0.500949 1.100117 48.160488 11.028463 7.791229 -21.084793 -1.472415 0.742201 -6.576105 0.000000 -0.000000 -0.000001 
1.075141 90.718491 4.902641 0.405685 -7.408074 -5.640103 -1.570134 0.538030 6.308405 -1.130296 0.631036 -3.104742 -0.578629 -0.283957 15.701399 -8.117627 8.901008 18.950199 1.438179 7.517062 -3.441656 -2.136171 9.130849 5.852561 0.000077 -0.000022 0.000006 -0.011695 0.039050 -0.146573 0.702989 -3.744684 -10.885056 -0.724602 3.795503 -10.887006 20.162029 -13.462483 8.711320 -78.671295 -41.293549 -19.603731 177.331009 -34.115547 -179.471573 5.747275 -16.838797 -11.524882 -5.882101 9.861278 0.702590 -10.936859 -0.360575 7.156196 0.000001 8.774813 -0.000001 -15.749082 18.009033 6.286253 -1.844031 2.498502 -2.507276 -10.163589 4.678939 4.621102 -20.975998 -0.000005 0.000003 -21.226255 2.451693 -3.593992 -0.000001 -0.000005 0.000000 -1.362680 2.240796 -0.746322 -21.334892 0.584907 3.008321 -13.821198 -0.000004 0.000002 -23.887133 -0.249080 -0.839480 -59.862259 2.405106 -1.330949 -0.294024 1.679686 0.833255 -14.218194 0.093213 1.300578 -34.212006 -0.287566 0.967171 -20.033180 0.964534 1.212843 0.000000 0.000001 0.000000 -3.440385 0.788232 0.501655 -15.928169 -3.167307 2.999703 -6.338817 -0.000001 0.000000 -18.123413 3.648175 -4.905661 -0.000007 0.000001 -0.000002 -7.000337 25.051689 13.797821 80.284218 48.227509 4.605312 178.056274 48.108788 178.822678 -6.753611 17.459587 -19.166662 2.243541 -5.255033 -3.180156 14.282877 -0.826595 6.952496 -0.000003 -12.690588 0.000000 15.679159 -17.350925 2.874565 1.665664 -1.955921 -2.878294 4.727795 -4.170584 4.993919 11.020510 0.000003 0.000000 12.109032 -3.735712 -2.866779 -0.000000 -0.000001 -0.000001 1.291984 -1.928547 -1.498088 14.800114 0.567467 3.865603 14.242554 -1.341734 -6.660649 19.631939 0.143926 -0.648243 49.209515 -0.691380 -5.557225 0.353029 -1.511149 -0.031940 20.222769 3.684304 2.316629 18.787243 0.000004 -0.000001 10.751610 -0.479869 1.397903 -0.000001 0.000001 -0.000002 3.273804 0.305947 -0.580110 21.486790 11.830362 2.266133 8.162917 0.000002 -0.000002 18.399052 -3.798982 -4.940566 0.000003 -0.000001 -0.000000 15.750113 18.754885 -18.923424 -0.435917 -0.698345 47.639919 -12.421701 -0.653921 -14.523281 1.636467 -1.838750 0.109973 -0.000000 -0.000001 0.000002 -15.903386 -9.474083 -7.891923 0.483341 0.959134 47.867805 11.060092 10.659558 -21.938381 -1.477831 0.684452 -4.556941 0.000000 0.000000 -0.000001 
